<?xml version="1.0" standalone="no"?>
<!DOCTYPE svg PUBLIC "-//W3C//DTD SVG 20010904//EN"
 "http://www.w3.org/TR/2001/REC-SVG-20010904/DTD/svg10.dtd">
<svg version="1.0" xmlns="http://www.w3.org/2000/svg"
 width="260.000000pt" height="260.000000pt" viewBox="0 0 260.000000 260.000000"
 preserveAspectRatio="xMidYMid meet">
<metadata>
Created by potrace 1.14, written by Peter Selinger 2001-2017
</metadata>
<g transform="translate(0.000000,260.000000) scale(0.100000,-0.100000)"
fill="#000000" stroke="none">
<path d="M1715 1910 c-194 -31 -324 -110 -385 -235 -22 -44 -25 -63 -25 -161
0 -106 1 -113 30 -160 69 -110 196 -162 540 -219 224 -37 295 -58 314 -93 32
-59 -6 -128 -87 -159 -38 -15 -76 -18 -202 -18 -140 0 -160 2 -205 23 -27 12
-58 30 -69 40 -25 23 -56 90 -56 125 l0 27 -150 0 -150 0 0 -52 c1 -198 129
-346 346 -402 152 -39 399 -43 574 -10 214 40 320 164 320 373 0 141 -47 221
-167 284 -86 45 -178 71 -368 103 -267 45 -354 71 -369 109 -23 62 26 123 119
150 119 35 310 8 379 -53 25 -23 56 -90 56 -124 l0 -28 155 0 155 0 0 29 c0
15 -5 52 -10 81 -33 174 -161 300 -357 351 -91 23 -296 33 -388 19z"/>
<path d="M110 1245 l0 -655 145 0 145 0 0 143 1 142 97 104 98 104 184 -247
185 -246 183 0 c144 0 182 3 176 13 -4 6 -122 168 -262 358 -140 191 -255 350
-254 353 1 4 104 120 230 259 125 139 243 269 261 290 l33 37 -199 0 -198 0
-265 -291 -265 -291 -3 291 -2 291 -145 0 -145 0 0 -655z"/>
</g>
</svg>
